  0
SECTION
  2
HEADER
  9
$ACADVER
  1
AC1009
  9
$INSUNITS
  70
4
  9
$EXTMIN
  10
-21.647679
  20
-15.163045
  9
$EXTMAX
  10
26.689562
  20
9.284076
  0
ENDSEC
  0
SECTION
  2
TABLES
  0
TABLE
  2
LTYPE
  70
1
  0
LTYPE
  2
CONTINUOUS
  70
64
  3
Solid line
  72
65
  73
0
  40
0
  0
ENDTAB
  0
TABLE
  2
LAYER
  70
8
  0
LAYER
  2
Copper
  70
0
  62
136
  6
CONTINUOUS
  0
LAYER
  2
Leads
  70
0
  62
9
  6
CONTINUOUS
  0
LAYER
  2
SolderMask
  70
0
  62
50
  6
CONTINUOUS
  0
LAYER
  2
15_0
  70
0
  62
138
  6
CONTINUOUS
  0
LAYER
  2
14_0
  70
0
  62
180
  6
CONTINUOUS
  0
LAYER
  2
16_0
  70
0
  62
216
  6
CONTINUOUS
  0
LAYER
  2
17_0
  70
0
  62
55
  6
CONTINUOUS
  0
LAYER
  2
99_1
  70
0
  62
217
  6
CONTINUOUS
  0
ENDTAB
  0
ENDSEC
  0
SECTION
  2
BLOCKS
  0
ENDSEC
  0
SECTION
  2
ENTITIES
  0
POLYLINE
  8
Copper
  70
1
  66
1
  0
VERTEX
  8
Copper
  10
-2.39707
  20
7.194195
  0
VERTEX
  8
Copper
  10
-2.39707
  20
-0.757756
  0
VERTEX
  8
Copper
  10
-1.38207
  20
-0.757756
  0
VERTEX
  8
Copper
  10
-1.38207
  20
7.194195
  0
SEQEND
  0
POLYLINE
  8
Copper
  70
1
  66
1
  0
VERTEX
  8
Copper
  10
-1.259294
  20
8.428476
  0
VERTEX
  8
Copper
  10
6.301177
  20
8.428476
  0
VERTEX
  8
Copper
  10
6.301177
  20
9.284076
  0
VERTEX
  8
Copper
  10
-1.259294
  20
9.284076
  0
SEQEND
  0
POLYLINE
  8
Copper
  70
1
  66
1
  0
VERTEX
  8
Copper
  10
6.423953
  20
7.194195
  0
VERTEX
  8
Copper
  10
6.423953
  20
-0.757756
  0
VERTEX
  8
Copper
  10
7.438953
  20
-0.757756
  0
VERTEX
  8
Copper
  10
7.438953
  20
7.194195
  0
SEQEND
  0
POLYLINE
  8
Copper
  70
1
  66
1
  0
VERTEX
  8
Copper
  10
6.503653
  20
8.226
  0
VERTEX
  8
Copper
  10
6.503653
  20
7.194195
  0
VERTEX
  8
Copper
  10
7.359253
  20
7.194195
  0
VERTEX
  8
Copper
  10
7.359253
  20
8.226
  0
SEQEND
  0
POLYLINE
  8
Copper
  70
1
  66
1
  0
VERTEX
  8
Copper
  10
-2.31737
  20
8.226
  0
VERTEX
  8
Copper
  10
-2.31737
  20
7.194195
  0
VERTEX
  8
Copper
  10
-1.46177
  20
7.194195
  0
VERTEX
  8
Copper
  10
-1.46177
  20
8.226
  0
SEQEND
  0
POLYLINE
  8
Copper
  70
1
  66
1
  0
VERTEX
  8
Copper
  10
-2.07157
  20
-2.076656
  0
VERTEX
  8
Copper
  10
-2.07157
  20
-4.445405
  0
VERTEX
  8
Copper
  10
-1.70757
  20
-4.445405
  0
VERTEX
  8
Copper
  10
-1.70757
  20
-2.076656
  0
SEQEND
  0
POLYLINE
  8
Copper
  70
1
  66
1
  0
VERTEX
  8
Copper
  10
-2.25522
  20
-4.445405
  0
VERTEX
  8
Copper
  10
-2.25522
  20
-8.399846
  0
VERTEX
  8
Copper
  10
-1.52392
  20
-8.399846
  0
VERTEX
  8
Copper
  10
-1.52392
  20
-4.445405
  0
SEQEND
  0
POLYLINE
  8
Copper
  70
1
  66
1
  0
VERTEX
  8
Copper
  10
-2.07157
  20
-8.399846
  0
VERTEX
  8
Copper
  10
-2.07157
  20
-10.768595
  0
VERTEX
  8
Copper
  10
-1.70757
  20
-10.768595
  0
VERTEX
  8
Copper
  10
-1.70757
  20
-8.399846
  0
SEQEND
  0
POLYLINE
  8
Copper
  70
1
  66
1
  0
VERTEX
  8
Copper
  10
-1.70757
  20
-11.610045
  0
VERTEX
  8
Copper
  10
0.426262
  20
-11.610045
  0
VERTEX
  8
Copper
  10
0.426262
  20
-11.246045
  0
VERTEX
  8
Copper
  10
-1.70757
  20
-11.246045
  0
SEQEND
  0
POLYLINE
  8
Copper
  70
1
  66
1
  0
VERTEX
  8
Copper
  10
0.426262
  20
-11.958295
  0
VERTEX
  8
Copper
  10
4.615621
  20
-11.958295
  0
VERTEX
  8
Copper
  10
4.615621
  20
-10.897795
  0
VERTEX
  8
Copper
  10
0.426262
  20
-10.897795
  0
SEQEND
  0
POLYLINE
  8
Copper
  70
1
  66
1
  0
VERTEX
  8
Copper
  10
4.615621
  20
-11.610045
  0
VERTEX
  8
Copper
  10
6.749453
  20
-11.610045
  0
VERTEX
  8
Copper
  10
6.749453
  20
-11.246045
  0
VERTEX
  8
Copper
  10
4.615621
  20
-11.246045
  0
SEQEND
  0
POLYLINE
  8
Copper
  70
1
  66
1
  0
VERTEX
  8
Copper
  10
6.749453
  20
-2.076656
  0
VERTEX
  8
Copper
  10
6.749453
  20
-4.445405
  0
VERTEX
  8
Copper
  10
7.113453
  20
-4.445405
  0
VERTEX
  8
Copper
  10
7.113453
  20
-2.076656
  0
SEQEND
  0
POLYLINE
  8
Copper
  70
1
  66
1
  0
VERTEX
  8
Copper
  10
6.565803
  20
-4.445405
  0
VERTEX
  8
Copper
  10
6.565803
  20
-8.399846
  0
VERTEX
  8
Copper
  10
7.297103
  20
-8.399846
  0
VERTEX
  8
Copper
  10
7.297103
  20
-4.445405
  0
SEQEND
  0
POLYLINE
  8
Copper
  70
1
  66
1
  0
VERTEX
  8
Copper
  10
6.749453
  20
-8.399846
  0
VERTEX
  8
Copper
  10
6.749453
  20
-10.768595
  0
VERTEX
  8
Copper
  10
7.113453
  20
-10.768595
  0
VERTEX
  8
Copper
  10
7.113453
  20
-8.399846
  0
SEQEND
  0
POLYLINE
  8
Copper
  70
1
  66
1
  0
VERTEX
  8
Copper
  10
-2.39707
  20
-0.757756
  0
VERTEX
  8
Copper
  10
-1.38207
  20
-0.757756
  0
VERTEX
  8
Copper
  10
-1.38207
  20
-1.417206
  0
VERTEX
  8
Copper
  10
-1.70757
  20
-1.417206
  0
VERTEX
  8
Copper
  10
-1.70757
  20
-2.076656
  0
VERTEX
  8
Copper
  10
-2.39707
  20
-2.076656
  0
SEQEND
  0
POLYLINE
  8
Copper
  70
1
  66
1
  0
VERTEX
  8
Copper
  10
-1.70757
  20
-10.768595
  0
VERTEX
  8
Copper
  10
-1.70757
  20
-11.610045
  0
VERTEX
  8
Copper
  10
-1.88957
  20
-11.610045
  0
VERTEX
  8
Copper
  10
-1.88957
  20
-12.087495
  0
VERTEX
  8
Copper
  10
-2.07157
  20
-12.087495
  0
VERTEX
  8
Copper
  10
-2.07157
  20
-10.768595
  0
SEQEND
  0
POLYLINE
  8
Copper
  70
1
  66
1
  0
VERTEX
  8
Copper
  10
7.438953
  20
-2.076656
  0
VERTEX
  8
Copper
  10
6.749453
  20
-2.076656
  0
VERTEX
  8
Copper
  10
6.749453
  20
-1.417206
  0
VERTEX
  8
Copper
  10
6.423953
  20
-1.417206
  0
VERTEX
  8
Copper
  10
6.423953
  20
-0.757756
  0
VERTEX
  8
Copper
  10
7.438953
  20
-0.757756
  0
SEQEND
  0
POLYLINE
  8
Copper
  70
1
  66
1
  0
VERTEX
  8
Copper
  10
7.113453
  20
-10.768595
  0
VERTEX
  8
Copper
  10
7.113453
  20
-12.087495
  0
VERTEX
  8
Copper
  10
6.931453
  20
-12.087495
  0
VERTEX
  8
Copper
  10
6.931453
  20
-11.610045
  0
VERTEX
  8
Copper
  10
6.749453
  20
-11.610045
  0
VERTEX
  8
Copper
  10
6.749453
  20
-10.768595
  0
SEQEND
  0
POLYLINE
  8
Copper
  70
1
  66
1
  0
VERTEX
  8
Copper
  10
-12.028679
  20
-2.076656
  0
VERTEX
  8
Copper
  10
-2.39707
  20
-2.076656
  0
VERTEX
  8
Copper
  10
-2.39707
  20
-0.757756
  0
VERTEX
  8
Copper
  10
-12.028679
  20
-0.757756
  0
SEQEND
  0
POLYLINE
  8
Copper
  70
1
  66
1
  0
VERTEX
  8
Copper
  10
-11.703179
  20
-12.087495
  0
VERTEX
  8
Copper
  10
-2.07157
  20
-12.087495
  0
VERTEX
  8
Copper
  10
-2.07157
  20
-10.768595
  0
VERTEX
  8
Copper
  10
-11.703179
  20
-10.768595
  0
SEQEND
  0
POLYLINE
  8
Copper
  70
1
  66
1
  0
VERTEX
  8
Copper
  10
7.113453
  20
-12.087495
  0
VERTEX
  8
Copper
  10
16.745062
  20
-12.087495
  0
VERTEX
  8
Copper
  10
16.745062
  20
-10.768595
  0
VERTEX
  8
Copper
  10
7.113453
  20
-10.768595
  0
SEQEND
  0
POLYLINE
  8
Copper
  70
1
  66
1
  0
VERTEX
  8
Copper
  10
7.438953
  20
-2.076656
  0
VERTEX
  8
Copper
  10
17.070562
  20
-2.076656
  0
VERTEX
  8
Copper
  10
17.070562
  20
-0.757756
  0
VERTEX
  8
Copper
  10
7.438953
  20
-0.757756
  0
SEQEND
  0
POLYLINE
  8
Copper
  70
1
  66
1
  0
VERTEX
  8
Copper
  10
-1.259294
  20
9.284076
  0
VERTEX
  8
Copper
  10
-2.31737
  20
8.226
  0
VERTEX
  8
Copper
  10
-1.46177
  20
8.226
  0
VERTEX
  8
Copper
  10
-1.46177
  20
8.428476
  0
VERTEX
  8
Copper
  10
-1.259294
  20
8.428476
  0
SEQEND
  0
POLYLINE
  8
Copper
  70
1
  66
1
  0
VERTEX
  8
Copper
  10
6.301177
  20
9.284076
  0
VERTEX
  8
Copper
  10
7.359253
  20
8.226
  0
VERTEX
  8
Copper
  10
6.503653
  20
8.226
  0
VERTEX
  8
Copper
  10
6.503653
  20
8.428476
  0
VERTEX
  8
Copper
  10
6.301177
  20
8.428476
  0
SEQEND
  0
POLYLINE
  8
Leads
  70
1
  66
1
  0
VERTEX
  8
Leads
  10
-7.222179
  20
-11.663045
  0
VERTEX
  8
Leads
  10
-7.222179
  20
-11.093045
  0
VERTEX
  8
Leads
  10
-11.903179
  20
-11.093045
  0
VERTEX
  8
Leads
  10
-11.903179
  20
-11.663045
  0
VERTEX
  8
Leads
  10
-7.222179
  20
-11.663045
  0
SEQEND
  0
POLYLINE
  8
Leads
  70
1
  66
1
  0
VERTEX
  8
Leads
  10
-7.547679
  20
-1.652206
  0
VERTEX
  8
Leads
  10
-7.547679
  20
-1.082206
  0
VERTEX
  8
Leads
  10
-12.228679
  20
-1.082206
  0
VERTEX
  8
Leads
  10
-12.228679
  20
-1.652206
  0
VERTEX
  8
Leads
  10
-7.547679
  20
-1.652206
  0
SEQEND
  0
POLYLINE
  8
Leads
  70
1
  66
1
  0
VERTEX
  8
Leads
  10
12.264062
  20
-11.193045
  0
VERTEX
  8
Leads
  10
12.264062
  20
-11.763045
  0
VERTEX
  8
Leads
  10
16.945062
  20
-11.763045
  0
VERTEX
  8
Leads
  10
16.945062
  20
-11.193045
  0
VERTEX
  8
Leads
  10
12.264062
  20
-11.193045
  0
SEQEND
  0
POLYLINE
  8
Leads
  70
1
  66
1
  0
VERTEX
  8
Leads
  10
12.589562
  20
-1.182206
  0
VERTEX
  8
Leads
  10
12.589562
  20
-1.752206
  0
VERTEX
  8
Leads
  10
17.270562
  20
-1.752206
  0
VERTEX
  8
Leads
  10
17.270562
  20
-1.182206
  0
VERTEX
  8
Leads
  10
12.589562
  20
-1.182206
  0
SEQEND
  0
POLYLINE
  8
SolderMask
  70
1
  66
1
  0
VERTEX
  8
SolderMask
  10
-6.722179
  20
-9.863045
  0
VERTEX
  8
SolderMask
  10
-6.722179
  20
-7.793045
  0
VERTEX
  8
SolderMask
  10
-11.954179
  20
-7.793045
  0
VERTEX
  8
SolderMask
  10
-11.954179
  20
-9.863045
  0
VERTEX
  8
SolderMask
  10
-6.722179
  20
-9.863045
  0
SEQEND
  0
POLYLINE
  8
SolderMask
  70
1
  66
1
  0
VERTEX
  8
SolderMask
  10
-6.722179
  20
-15.163045
  0
VERTEX
  8
SolderMask
  10
-6.722179
  20
-13.093045
  0
VERTEX
  8
SolderMask
  10
-11.954179
  20
-13.093045
  0
VERTEX
  8
SolderMask
  10
-11.954179
  20
-15.163045
  0
VERTEX
  8
SolderMask
  10
-6.722179
  20
-15.163045
  0
SEQEND
  0
POLYLINE
  8
SolderMask
  70
1
  66
1
  0
VERTEX
  8
SolderMask
  10
-6.722179
  20
-12.063045
  0
VERTEX
  8
SolderMask
  10
-6.722179
  20
-10.693045
  0
VERTEX
  8
SolderMask
  10
-11.854179
  20
-10.693045
  0
VERTEX
  8
SolderMask
  10
-11.854179
  20
-12.063045
  0
VERTEX
  8
SolderMask
  10
-6.722179
  20
-12.063045
  0
SEQEND
  0
POLYLINE
  8
SolderMask
  70
1
  66
1
  0
VERTEX
  8
SolderMask
  10
-7.047679
  20
0.147794
  0
VERTEX
  8
SolderMask
  10
-7.047679
  20
2.217794
  0
VERTEX
  8
SolderMask
  10
-12.279679
  20
2.217794
  0
VERTEX
  8
SolderMask
  10
-12.279679
  20
0.147794
  0
VERTEX
  8
SolderMask
  10
-7.047679
  20
0.147794
  0
SEQEND
  0
POLYLINE
  8
SolderMask
  70
1
  66
1
  0
VERTEX
  8
SolderMask
  10
-7.047679
  20
-5.152206
  0
VERTEX
  8
SolderMask
  10
-7.047679
  20
-3.082206
  0
VERTEX
  8
SolderMask
  10
-12.279679
  20
-3.082206
  0
VERTEX
  8
SolderMask
  10
-12.279679
  20
-5.152206
  0
VERTEX
  8
SolderMask
  10
-7.047679
  20
-5.152206
  0
SEQEND
  0
POLYLINE
  8
SolderMask
  70
1
  66
1
  0
VERTEX
  8
SolderMask
  10
-7.047679
  20
-2.052206
  0
VERTEX
  8
SolderMask
  10
-7.047679
  20
-0.682206
  0
VERTEX
  8
SolderMask
  10
-12.179679
  20
-0.682206
  0
VERTEX
  8
SolderMask
  10
-12.179679
  20
-2.052206
  0
VERTEX
  8
SolderMask
  10
-7.047679
  20
-2.052206
  0
SEQEND
  0
POLYLINE
  8
SolderMask
  70
1
  66
1
  0
VERTEX
  8
SolderMask
  10
11.764062
  20
-12.993045
  0
VERTEX
  8
SolderMask
  10
11.764062
  20
-15.063045
  0
VERTEX
  8
SolderMask
  10
16.996062
  20
-15.063045
  0
VERTEX
  8
SolderMask
  10
16.996062
  20
-12.993045
  0
VERTEX
  8
SolderMask
  10
11.764062
  20
-12.993045
  0
SEQEND
  0
POLYLINE
  8
SolderMask
  70
1
  66
1
  0
VERTEX
  8
SolderMask
  10
11.764062
  20
-7.693045
  0
VERTEX
  8
SolderMask
  10
11.764062
  20
-9.763045
  0
VERTEX
  8
SolderMask
  10
16.996062
  20
-9.763045
  0
VERTEX
  8
SolderMask
  10
16.996062
  20
-7.693045
  0
VERTEX
  8
SolderMask
  10
11.764062
  20
-7.693045
  0
SEQEND
  0
POLYLINE
  8
SolderMask
  70
1
  66
1
  0
VERTEX
  8
SolderMask
  10
11.764062
  20
-10.793045
  0
VERTEX
  8
SolderMask
  10
11.764062
  20
-12.163045
  0
VERTEX
  8
SolderMask
  10
16.896062
  20
-12.163045
  0
VERTEX
  8
SolderMask
  10
16.896062
  20
-10.793045
  0
VERTEX
  8
SolderMask
  10
11.764062
  20
-10.793045
  0
SEQEND
  0
POLYLINE
  8
SolderMask
  70
1
  66
1
  0
VERTEX
  8
SolderMask
  10
12.089562
  20
-2.982206
  0
VERTEX
  8
SolderMask
  10
12.089562
  20
-5.052206
  0
VERTEX
  8
SolderMask
  10
17.321562
  20
-5.052206
  0
VERTEX
  8
SolderMask
  10
17.321562
  20
-2.982206
  0
VERTEX
  8
SolderMask
  10
12.089562
  20
-2.982206
  0
SEQEND
  0
POLYLINE
  8
SolderMask
  70
1
  66
1
  0
VERTEX
  8
SolderMask
  10
12.089562
  20
2.317794
  0
VERTEX
  8
SolderMask
  10
12.089562
  20
0.247794
  0
VERTEX
  8
SolderMask
  10
17.321562
  20
0.247794
  0
VERTEX
  8
SolderMask
  10
17.321562
  20
2.317794
  0
VERTEX
  8
SolderMask
  10
12.089562
  20
2.317794
  0
SEQEND
  0
POLYLINE
  8
SolderMask
  70
1
  66
1
  0
VERTEX
  8
SolderMask
  10
12.089562
  20
-0.782206
  0
VERTEX
  8
SolderMask
  10
12.089562
  20
-2.152206
  0
VERTEX
  8
SolderMask
  10
17.221562
  20
-2.152206
  0
VERTEX
  8
SolderMask
  10
17.221562
  20
-0.782206
  0
VERTEX
  8
SolderMask
  10
12.089562
  20
-0.782206
  0
SEQEND
  0
POLYLINE
  8
15_0
  70
1
  66
1
  0
VERTEX
  8
15_0
  10
-7.222179
  20
-9.363045
  0
VERTEX
  8
15_0
  10
-7.222179
  20
-8.293045
  0
VERTEX
  8
15_0
  10
-11.954179
  20
-8.293045
  0
VERTEX
  8
15_0
  10
-11.954179
  20
-9.363045
  0
VERTEX
  8
15_0
  10
-7.222179
  20
-9.363045
  0
SEQEND
  0
POLYLINE
  8
15_0
  70
1
  66
1
  0
VERTEX
  8
15_0
  10
-7.222179
  20
-14.663045
  0
VERTEX
  8
15_0
  10
-7.222179
  20
-13.593045
  0
VERTEX
  8
15_0
  10
-11.954179
  20
-13.593045
  0
VERTEX
  8
15_0
  10
-11.954179
  20
-14.663045
  0
VERTEX
  8
15_0
  10
-7.222179
  20
-14.663045
  0
SEQEND
  0
POLYLINE
  8
15_0
  70
1
  66
1
  0
VERTEX
  8
15_0
  10
-7.547679
  20
0.647794
  0
VERTEX
  8
15_0
  10
-7.547679
  20
1.717794
  0
VERTEX
  8
15_0
  10
-12.279679
  20
1.717794
  0
VERTEX
  8
15_0
  10
-12.279679
  20
0.647794
  0
VERTEX
  8
15_0
  10
-7.547679
  20
0.647794
  0
SEQEND
  0
POLYLINE
  8
15_0
  70
1
  66
1
  0
VERTEX
  8
15_0
  10
-7.547679
  20
-4.652206
  0
VERTEX
  8
15_0
  10
-7.547679
  20
-3.582206
  0
VERTEX
  8
15_0
  10
-12.279679
  20
-3.582206
  0
VERTEX
  8
15_0
  10
-12.279679
  20
-4.652206
  0
VERTEX
  8
15_0
  10
-7.547679
  20
-4.652206
  0
SEQEND
  0
POLYLINE
  8
15_0
  70
1
  66
1
  0
VERTEX
  8
15_0
  10
12.264062
  20
-13.493045
  0
VERTEX
  8
15_0
  10
12.264062
  20
-14.563045
  0
VERTEX
  8
15_0
  10
16.996062
  20
-14.563045
  0
VERTEX
  8
15_0
  10
16.996062
  20
-13.493045
  0
VERTEX
  8
15_0
  10
12.264062
  20
-13.493045
  0
SEQEND
  0
POLYLINE
  8
15_0
  70
1
  66
1
  0
VERTEX
  8
15_0
  10
12.264062
  20
-8.193045
  0
VERTEX
  8
15_0
  10
12.264062
  20
-9.263045
  0
VERTEX
  8
15_0
  10
16.996062
  20
-9.263045
  0
VERTEX
  8
15_0
  10
16.996062
  20
-8.193045
  0
VERTEX
  8
15_0
  10
12.264062
  20
-8.193045
  0
SEQEND
  0
POLYLINE
  8
15_0
  70
1
  66
1
  0
VERTEX
  8
15_0
  10
12.589562
  20
-3.482206
  0
VERTEX
  8
15_0
  10
12.589562
  20
-4.552206
  0
VERTEX
  8
15_0
  10
17.321562
  20
-4.552206
  0
VERTEX
  8
15_0
  10
17.321562
  20
-3.482206
  0
VERTEX
  8
15_0
  10
12.589562
  20
-3.482206
  0
SEQEND
  0
POLYLINE
  8
15_0
  70
1
  66
1
  0
VERTEX
  8
15_0
  10
12.589562
  20
1.817794
  0
VERTEX
  8
15_0
  10
12.589562
  20
0.747794
  0
VERTEX
  8
15_0
  10
17.321562
  20
0.747794
  0
VERTEX
  8
15_0
  10
17.321562
  20
1.817794
  0
VERTEX
  8
15_0
  10
12.589562
  20
1.817794
  0
SEQEND
  0
POLYLINE
  8
14_0
  70
1
  66
1
  0
VERTEX
  8
14_0
  10
-13.422179
  20
-13.993045
  0
VERTEX
  8
14_0
  10
-15.022179
  20
-13.993045
  0
VERTEX
  8
14_0
  10
-15.022179
  20
-14.793045
  0
VERTEX
  8
14_0
  10
-20.922179
  20
-14.793045
  0
VERTEX
  8
14_0
  10
-20.922179
  20
-14.093045
  0
VERTEX
  8
14_0
  10
-21.322179
  20
-14.093045
  0
VERTEX
  8
14_0
  10
-21.322179
  20
-8.793045
  0
VERTEX
  8
14_0
  10
-21.022179
  20
-8.793045
  0
VERTEX
  8
14_0
  10
-21.022179
  20
-8.093045
  0
VERTEX
  8
14_0
  10
-15.222179
  20
-8.093045
  0
VERTEX
  8
14_0
  10
-15.222179
  20
-8.793045
  0
VERTEX
  8
14_0
  10
-13.422179
  20
-8.793045
  0
VERTEX
  8
14_0
  10
-13.422179
  20
-13.993045
  0
SEQEND
  0
POLYLINE
  8
14_0
  70
1
  66
1
  0
VERTEX
  8
14_0
  10
-13.747679
  20
-3.982206
  0
VERTEX
  8
14_0
  10
-15.347679
  20
-3.982206
  0
VERTEX
  8
14_0
  10
-15.347679
  20
-4.782206
  0
VERTEX
  8
14_0
  10
-21.247679
  20
-4.782206
  0
VERTEX
  8
14_0
  10
-21.247679
  20
-4.082206
  0
VERTEX
  8
14_0
  10
-21.647679
  20
-4.082206
  0
VERTEX
  8
14_0
  10
-21.647679
  20
1.217794
  0
VERTEX
  8
14_0
  10
-21.347679
  20
1.217794
  0
VERTEX
  8
14_0
  10
-21.347679
  20
1.917794
  0
VERTEX
  8
14_0
  10
-15.547679
  20
1.917794
  0
VERTEX
  8
14_0
  10
-15.547679
  20
1.217794
  0
VERTEX
  8
14_0
  10
-13.747679
  20
1.217794
  0
VERTEX
  8
14_0
  10
-13.747679
  20
-3.982206
  0
SEQEND
  0
POLYLINE
  8
14_0
  70
1
  66
1
  0
VERTEX
  8
14_0
  10
18.464062
  20
-8.863045
  0
VERTEX
  8
14_0
  10
20.064062
  20
-8.863045
  0
VERTEX
  8
14_0
  10
20.064062
  20
-8.063045
  0
VERTEX
  8
14_0
  10
25.964062
  20
-8.063045
  0
VERTEX
  8
14_0
  10
25.964062
  20
-8.763045
  0
VERTEX
  8
14_0
  10
26.364062
  20
-8.763045
  0
VERTEX
  8
14_0
  10
26.364062
  20
-14.063045
  0
VERTEX
  8
14_0
  10
26.064062
  20
-14.063045
  0
VERTEX
  8
14_0
  10
26.064062
  20
-14.763045
  0
VERTEX
  8
14_0
  10
20.264062
  20
-14.763045
  0
VERTEX
  8
14_0
  10
20.264062
  20
-14.063045
  0
VERTEX
  8
14_0
  10
18.464062
  20
-14.063045
  0
VERTEX
  8
14_0
  10
18.464062
  20
-8.863045
  0
SEQEND
  0
POLYLINE
  8
14_0
  70
1
  66
1
  0
VERTEX
  8
14_0
  10
18.789562
  20
1.147794
  0
VERTEX
  8
14_0
  10
20.389562
  20
1.147794
  0
VERTEX
  8
14_0
  10
20.389562
  20
1.947794
  0
VERTEX
  8
14_0
  10
26.289562
  20
1.947794
  0
VERTEX
  8
14_0
  10
26.289562
  20
1.247794
  0
VERTEX
  8
14_0
  10
26.689562
  20
1.247794
  0
VERTEX
  8
14_0
  10
26.689562
  20
-4.052206
  0
VERTEX
  8
14_0
  10
26.389562
  20
-4.052206
  0
VERTEX
  8
14_0
  10
26.389562
  20
-4.752206
  0
VERTEX
  8
14_0
  10
20.589562
  20
-4.752206
  0
VERTEX
  8
14_0
  10
20.589562
  20
-4.052206
  0
VERTEX
  8
14_0
  10
18.789562
  20
-4.052206
  0
VERTEX
  8
14_0
  10
18.789562
  20
1.147794
  0
SEQEND
  0
POLYLINE
  8
16_0
  70
1
  66
1
  0
VERTEX
  8
16_0
  10
-11.922179
  20
-14.693045
  0
VERTEX
  8
16_0
  10
-11.922179
  20
-8.293045
  0
VERTEX
  8
16_0
  10
-13.422179
  20
-8.293045
  0
VERTEX
  8
16_0
  10
-13.422179
  20
-14.693045
  0
VERTEX
  8
16_0
  10
-11.922179
  20
-14.693045
  0
SEQEND
  0
POLYLINE
  8
16_0
  70
1
  66
1
  0
VERTEX
  8
16_0
  10
-12.247679
  20
-4.682206
  0
VERTEX
  8
16_0
  10
-12.247679
  20
1.717794
  0
VERTEX
  8
16_0
  10
-13.747679
  20
1.717794
  0
VERTEX
  8
16_0
  10
-13.747679
  20
-4.682206
  0
VERTEX
  8
16_0
  10
-12.247679
  20
-4.682206
  0
SEQEND
  0
POLYLINE
  8
16_0
  70
1
  66
1
  0
VERTEX
  8
16_0
  10
16.964062
  20
-8.163045
  0
VERTEX
  8
16_0
  10
16.964062
  20
-14.563045
  0
VERTEX
  8
16_0
  10
18.464062
  20
-14.563045
  0
VERTEX
  8
16_0
  10
18.464062
  20
-8.163045
  0
VERTEX
  8
16_0
  10
16.964062
  20
-8.163045
  0
SEQEND
  0
POLYLINE
  8
16_0
  70
1
  66
1
  0
VERTEX
  8
16_0
  10
17.289562
  20
1.847794
  0
VERTEX
  8
16_0
  10
17.289562
  20
-4.552206
  0
VERTEX
  8
16_0
  10
18.789562
  20
-4.552206
  0
VERTEX
  8
16_0
  10
18.789562
  20
1.847794
  0
VERTEX
  8
16_0
  10
17.289562
  20
1.847794
  0
SEQEND
  0
POLYLINE
  8
17_0
  70
1
  66
1
  0
VERTEX
  8
17_0
  10
-7.222179
  20
-14.663045
  0
VERTEX
  8
17_0
  10
-7.222179
  20
-13.593045
  0
VERTEX
  8
17_0
  10
-11.954179
  20
-13.593045
  0
VERTEX
  8
17_0
  10
-11.954179
  20
-14.663045
  0
VERTEX
  8
17_0
  10
-7.222179
  20
-14.663045
  0
SEQEND
  0
POLYLINE
  8
17_0
  70
1
  66
1
  0
VERTEX
  8
17_0
  10
-7.222179
  20
-9.363045
  0
VERTEX
  8
17_0
  10
-7.222179
  20
-8.293045
  0
VERTEX
  8
17_0
  10
-11.954179
  20
-8.293045
  0
VERTEX
  8
17_0
  10
-11.954179
  20
-9.363045
  0
VERTEX
  8
17_0
  10
-7.222179
  20
-9.363045
  0
SEQEND
  0
POLYLINE
  8
17_0
  70
1
  66
1
  0
VERTEX
  8
17_0
  10
-7.547679
  20
-4.652206
  0
VERTEX
  8
17_0
  10
-7.547679
  20
-3.582206
  0
VERTEX
  8
17_0
  10
-12.279679
  20
-3.582206
  0
VERTEX
  8
17_0
  10
-12.279679
  20
-4.652206
  0
VERTEX
  8
17_0
  10
-7.547679
  20
-4.652206
  0
SEQEND
  0
POLYLINE
  8
17_0
  70
1
  66
1
  0
VERTEX
  8
17_0
  10
-7.547679
  20
0.647794
  0
VERTEX
  8
17_0
  10
-7.547679
  20
1.717794
  0
VERTEX
  8
17_0
  10
-12.279679
  20
1.717794
  0
VERTEX
  8
17_0
  10
-12.279679
  20
0.647794
  0
VERTEX
  8
17_0
  10
-7.547679
  20
0.647794
  0
SEQEND
  0
POLYLINE
  8
17_0
  70
1
  66
1
  0
VERTEX
  8
17_0
  10
12.264062
  20
-8.193045
  0
VERTEX
  8
17_0
  10
12.264062
  20
-9.263045
  0
VERTEX
  8
17_0
  10
16.996062
  20
-9.263045
  0
VERTEX
  8
17_0
  10
16.996062
  20
-8.193045
  0
VERTEX
  8
17_0
  10
12.264062
  20
-8.193045
  0
SEQEND
  0
POLYLINE
  8
17_0
  70
1
  66
1
  0
VERTEX
  8
17_0
  10
12.264062
  20
-13.493045
  0
VERTEX
  8
17_0
  10
12.264062
  20
-14.563045
  0
VERTEX
  8
17_0
  10
16.996062
  20
-14.563045
  0
VERTEX
  8
17_0
  10
16.996062
  20
-13.493045
  0
VERTEX
  8
17_0
  10
12.264062
  20
-13.493045
  0
SEQEND
  0
POLYLINE
  8
17_0
  70
1
  66
1
  0
VERTEX
  8
17_0
  10
12.589562
  20
1.817794
  0
VERTEX
  8
17_0
  10
12.589562
  20
0.747794
  0
VERTEX
  8
17_0
  10
17.321562
  20
0.747794
  0
VERTEX
  8
17_0
  10
17.321562
  20
1.817794
  0
VERTEX
  8
17_0
  10
12.589562
  20
1.817794
  0
SEQEND
  0
POLYLINE
  8
17_0
  70
1
  66
1
  0
VERTEX
  8
17_0
  10
12.589562
  20
-3.482206
  0
VERTEX
  8
17_0
  10
12.589562
  20
-4.552206
  0
VERTEX
  8
17_0
  10
17.321562
  20
-4.552206
  0
VERTEX
  8
17_0
  10
17.321562
  20
-3.482206
  0
VERTEX
  8
17_0
  10
12.589562
  20
-3.482206
  0
SEQEND
  0
ENDSEC
  0
EOF
