  0
SECTION
  2
HEADER
  9
$ACADVER
  1
AC1009
  9
$INSUNITS
  70
4
  9
$EXTMIN
  10
-21.635777
  20
-15.142478
  9
$EXTMAX
  10
26.667209
  20
9.281301
  0
ENDSEC
  0
SECTION
  2
TABLES
  0
TABLE
  2
LTYPE
  70
1
  0
LTYPE
  2
CONTINUOUS
  70
64
  3
Solid line
  72
65
  73
0
  40
0
  0
ENDTAB
  0
TABLE
  2
LAYER
  70
8
  0
LAYER
  2
Copper
  70
0
  62
136
  6
CONTINUOUS
  0
LAYER
  2
Leads
  70
0
  62
9
  6
CONTINUOUS
  0
LAYER
  2
SolderMask
  70
0
  62
50
  6
CONTINUOUS
  0
LAYER
  2
15_0
  70
0
  62
138
  6
CONTINUOUS
  0
LAYER
  2
14_0
  70
0
  62
180
  6
CONTINUOUS
  0
LAYER
  2
16_0
  70
0
  62
216
  6
CONTINUOUS
  0
LAYER
  2
17_0
  70
0
  62
55
  6
CONTINUOUS
  0
LAYER
  2
99_1
  70
0
  62
217
  6
CONTINUOUS
  0
ENDTAB
  0
ENDSEC
  0
SECTION
  2
BLOCKS
  0
ENDSEC
  0
SECTION
  2
ENTITIES
  0
POLYLINE
  8
Copper
  70
1
  66
1
  0
VERTEX
  8
Copper
  10
-1.259294
  20
9.281301
  0
VERTEX
  8
Copper
  10
-2.31737
  20
8.223225
  0
VERTEX
  8
Copper
  10
-1.46177
  20
8.223225
  0
VERTEX
  8
Copper
  10
-1.46177
  20
8.425701
  0
VERTEX
  8
Copper
  10
-1.259294
  20
8.425701
  0
SEQEND
  0
POLYLINE
  8
Copper
  70
1
  66
1
  0
VERTEX
  8
Copper
  10
6.290726
  20
9.281301
  0
VERTEX
  8
Copper
  10
7.348802
  20
8.223225
  0
VERTEX
  8
Copper
  10
6.493202
  20
8.223225
  0
VERTEX
  8
Copper
  10
6.493202
  20
8.425701
  0
VERTEX
  8
Copper
  10
6.290726
  20
8.425701
  0
SEQEND
  0
POLYLINE
  8
Copper
  70
1
  66
1
  0
VERTEX
  8
Copper
  10
-12.016777
  20
-2.066829
  0
VERTEX
  8
Copper
  10
-2.39707
  20
-2.066829
  0
VERTEX
  8
Copper
  10
-2.39707
  20
-0.747929
  0
VERTEX
  8
Copper
  10
-12.016777
  20
-0.747929
  0
SEQEND
  0
POLYLINE
  8
Copper
  70
1
  66
1
  0
VERTEX
  8
Copper
  10
-11.691277
  20
-12.066928
  0
VERTEX
  8
Copper
  10
-2.07157
  20
-12.066928
  0
VERTEX
  8
Copper
  10
-2.07157
  20
-10.748028
  0
VERTEX
  8
Copper
  10
-11.691277
  20
-10.748028
  0
SEQEND
  0
POLYLINE
  8
Copper
  70
1
  66
1
  0
VERTEX
  8
Copper
  10
7.103002
  20
-12.066928
  0
VERTEX
  8
Copper
  10
16.722709
  20
-12.066928
  0
VERTEX
  8
Copper
  10
16.722709
  20
-10.748028
  0
VERTEX
  8
Copper
  10
7.103002
  20
-10.748028
  0
SEQEND
  0
POLYLINE
  8
Copper
  70
1
  66
1
  0
VERTEX
  8
Copper
  10
7.428502
  20
-2.066829
  0
VERTEX
  8
Copper
  10
17.048209
  20
-2.066829
  0
VERTEX
  8
Copper
  10
17.048209
  20
-0.747929
  0
VERTEX
  8
Copper
  10
7.428502
  20
-0.747929
  0
SEQEND
  0
POLYLINE
  8
Copper
  70
1
  66
1
  0
VERTEX
  8
Copper
  10
-2.39707
  20
7.194195
  0
VERTEX
  8
Copper
  10
-2.39707
  20
-0.747929
  0
VERTEX
  8
Copper
  10
-1.38207
  20
-0.747929
  0
VERTEX
  8
Copper
  10
-1.38207
  20
7.194195
  0
SEQEND
  0
POLYLINE
  8
Copper
  70
1
  66
1
  0
VERTEX
  8
Copper
  10
-1.259294
  20
8.425701
  0
VERTEX
  8
Copper
  10
6.290726
  20
8.425701
  0
VERTEX
  8
Copper
  10
6.290726
  20
9.281301
  0
VERTEX
  8
Copper
  10
-1.259294
  20
9.281301
  0
SEQEND
  0
POLYLINE
  8
Copper
  70
1
  66
1
  0
VERTEX
  8
Copper
  10
6.413502
  20
7.194195
  0
VERTEX
  8
Copper
  10
6.413502
  20
-0.747929
  0
VERTEX
  8
Copper
  10
7.428502
  20
-0.747929
  0
VERTEX
  8
Copper
  10
7.428502
  20
7.194195
  0
SEQEND
  0
POLYLINE
  8
Copper
  70
1
  66
1
  0
VERTEX
  8
Copper
  10
6.493202
  20
8.223225
  0
VERTEX
  8
Copper
  10
6.493202
  20
7.194195
  0
VERTEX
  8
Copper
  10
7.348802
  20
7.194195
  0
VERTEX
  8
Copper
  10
7.348802
  20
8.223225
  0
SEQEND
  0
POLYLINE
  8
Copper
  70
1
  66
1
  0
VERTEX
  8
Copper
  10
-2.31737
  20
8.223225
  0
VERTEX
  8
Copper
  10
-2.31737
  20
7.194195
  0
VERTEX
  8
Copper
  10
-1.46177
  20
7.194195
  0
VERTEX
  8
Copper
  10
-1.46177
  20
8.223225
  0
SEQEND
  0
POLYLINE
  8
Copper
  70
1
  66
1
  0
VERTEX
  8
Copper
  10
-2.07157
  20
-2.066829
  0
VERTEX
  8
Copper
  10
-2.07157
  20
-4.432651
  0
VERTEX
  8
Copper
  10
-1.70757
  20
-4.432651
  0
VERTEX
  8
Copper
  10
-1.70757
  20
-2.066829
  0
SEQEND
  0
POLYLINE
  8
Copper
  70
1
  66
1
  0
VERTEX
  8
Copper
  10
-2.25522
  20
-4.432651
  0
VERTEX
  8
Copper
  10
-2.25522
  20
-8.382206
  0
VERTEX
  8
Copper
  10
-1.52392
  20
-8.382206
  0
VERTEX
  8
Copper
  10
-1.52392
  20
-4.432651
  0
SEQEND
  0
POLYLINE
  8
Copper
  70
1
  66
1
  0
VERTEX
  8
Copper
  10
-2.07157
  20
-8.382206
  0
VERTEX
  8
Copper
  10
-2.07157
  20
-10.748028
  0
VERTEX
  8
Copper
  10
-1.70757
  20
-10.748028
  0
VERTEX
  8
Copper
  10
-1.70757
  20
-8.382206
  0
SEQEND
  0
POLYLINE
  8
Copper
  70
1
  66
1
  0
VERTEX
  8
Copper
  10
-1.70757
  20
-11.589478
  0
VERTEX
  8
Copper
  10
0.423625
  20
-11.589478
  0
VERTEX
  8
Copper
  10
0.423625
  20
-11.225478
  0
VERTEX
  8
Copper
  10
-1.70757
  20
-11.225478
  0
SEQEND
  0
POLYLINE
  8
Copper
  70
1
  66
1
  0
VERTEX
  8
Copper
  10
0.423625
  20
-11.937728
  0
VERTEX
  8
Copper
  10
4.607807
  20
-11.937728
  0
VERTEX
  8
Copper
  10
4.607807
  20
-10.877228
  0
VERTEX
  8
Copper
  10
0.423625
  20
-10.877228
  0
SEQEND
  0
POLYLINE
  8
Copper
  70
1
  66
1
  0
VERTEX
  8
Copper
  10
4.607807
  20
-11.589478
  0
VERTEX
  8
Copper
  10
6.739002
  20
-11.589478
  0
VERTEX
  8
Copper
  10
6.739002
  20
-11.225478
  0
VERTEX
  8
Copper
  10
4.607807
  20
-11.225478
  0
SEQEND
  0
POLYLINE
  8
Copper
  70
1
  66
1
  0
VERTEX
  8
Copper
  10
6.739002
  20
-2.066829
  0
VERTEX
  8
Copper
  10
6.739002
  20
-4.432651
  0
VERTEX
  8
Copper
  10
7.103002
  20
-4.432651
  0
VERTEX
  8
Copper
  10
7.103002
  20
-2.066829
  0
SEQEND
  0
POLYLINE
  8
Copper
  70
1
  66
1
  0
VERTEX
  8
Copper
  10
6.555352
  20
-4.432651
  0
VERTEX
  8
Copper
  10
6.555352
  20
-8.382206
  0
VERTEX
  8
Copper
  10
7.286652
  20
-8.382206
  0
VERTEX
  8
Copper
  10
7.286652
  20
-4.432651
  0
SEQEND
  0
POLYLINE
  8
Copper
  70
1
  66
1
  0
VERTEX
  8
Copper
  10
6.739002
  20
-8.382206
  0
VERTEX
  8
Copper
  10
6.739002
  20
-10.748028
  0
VERTEX
  8
Copper
  10
7.103002
  20
-10.748028
  0
VERTEX
  8
Copper
  10
7.103002
  20
-8.382206
  0
SEQEND
  0
POLYLINE
  8
Copper
  70
1
  66
1
  0
VERTEX
  8
Copper
  10
-2.39707
  20
-0.747929
  0
VERTEX
  8
Copper
  10
-1.38207
  20
-0.747929
  0
VERTEX
  8
Copper
  10
-1.38207
  20
-1.407379
  0
VERTEX
  8
Copper
  10
-1.70757
  20
-1.407379
  0
VERTEX
  8
Copper
  10
-1.70757
  20
-2.066829
  0
VERTEX
  8
Copper
  10
-2.39707
  20
-2.066829
  0
SEQEND
  0
POLYLINE
  8
Copper
  70
1
  66
1
  0
VERTEX
  8
Copper
  10
-1.70757
  20
-10.748028
  0
VERTEX
  8
Copper
  10
-1.70757
  20
-11.589478
  0
VERTEX
  8
Copper
  10
-1.88957
  20
-11.589478
  0
VERTEX
  8
Copper
  10
-1.88957
  20
-12.066928
  0
VERTEX
  8
Copper
  10
-2.07157
  20
-12.066928
  0
VERTEX
  8
Copper
  10
-2.07157
  20
-10.748028
  0
SEQEND
  0
POLYLINE
  8
Copper
  70
1
  66
1
  0
VERTEX
  8
Copper
  10
7.428502
  20
-2.066829
  0
VERTEX
  8
Copper
  10
6.739002
  20
-2.066829
  0
VERTEX
  8
Copper
  10
6.739002
  20
-1.407379
  0
VERTEX
  8
Copper
  10
6.413502
  20
-1.407379
  0
VERTEX
  8
Copper
  10
6.413502
  20
-0.747929
  0
VERTEX
  8
Copper
  10
7.428502
  20
-0.747929
  0
SEQEND
  0
POLYLINE
  8
Copper
  70
1
  66
1
  0
VERTEX
  8
Copper
  10
7.103002
  20
-10.748028
  0
VERTEX
  8
Copper
  10
7.103002
  20
-12.066928
  0
VERTEX
  8
Copper
  10
6.921002
  20
-12.066928
  0
VERTEX
  8
Copper
  10
6.921002
  20
-11.589478
  0
VERTEX
  8
Copper
  10
6.739002
  20
-11.589478
  0
VERTEX
  8
Copper
  10
6.739002
  20
-10.748028
  0
SEQEND
  0
POLYLINE
  8
Leads
  70
1
  66
1
  0
VERTEX
  8
Leads
  10
-7.210277
  20
-11.642478
  0
VERTEX
  8
Leads
  10
-7.210277
  20
-11.072478
  0
VERTEX
  8
Leads
  10
-11.891277
  20
-11.072478
  0
VERTEX
  8
Leads
  10
-11.891277
  20
-11.642478
  0
VERTEX
  8
Leads
  10
-7.210277
  20
-11.642478
  0
SEQEND
  0
POLYLINE
  8
Leads
  70
1
  66
1
  0
VERTEX
  8
Leads
  10
-7.535777
  20
-1.642379
  0
VERTEX
  8
Leads
  10
-7.535777
  20
-1.072379
  0
VERTEX
  8
Leads
  10
-12.216777
  20
-1.072379
  0
VERTEX
  8
Leads
  10
-12.216777
  20
-1.642379
  0
VERTEX
  8
Leads
  10
-7.535777
  20
-1.642379
  0
SEQEND
  0
POLYLINE
  8
Leads
  70
1
  66
1
  0
VERTEX
  8
Leads
  10
12.241709
  20
-11.172478
  0
VERTEX
  8
Leads
  10
12.241709
  20
-11.742478
  0
VERTEX
  8
Leads
  10
16.922709
  20
-11.742478
  0
VERTEX
  8
Leads
  10
16.922709
  20
-11.172478
  0
VERTEX
  8
Leads
  10
12.241709
  20
-11.172478
  0
SEQEND
  0
POLYLINE
  8
Leads
  70
1
  66
1
  0
VERTEX
  8
Leads
  10
12.567209
  20
-1.172379
  0
VERTEX
  8
Leads
  10
12.567209
  20
-1.742379
  0
VERTEX
  8
Leads
  10
17.248209
  20
-1.742379
  0
VERTEX
  8
Leads
  10
17.248209
  20
-1.172379
  0
VERTEX
  8
Leads
  10
12.567209
  20
-1.172379
  0
SEQEND
  0
POLYLINE
  8
SolderMask
  70
1
  66
1
  0
VERTEX
  8
SolderMask
  10
-6.710277
  20
-9.842478
  0
VERTEX
  8
SolderMask
  10
-6.710277
  20
-7.772478
  0
VERTEX
  8
SolderMask
  10
-11.942277
  20
-7.772478
  0
VERTEX
  8
SolderMask
  10
-11.942277
  20
-9.842478
  0
VERTEX
  8
SolderMask
  10
-6.710277
  20
-9.842478
  0
SEQEND
  0
POLYLINE
  8
SolderMask
  70
1
  66
1
  0
VERTEX
  8
SolderMask
  10
-6.710277
  20
-15.142478
  0
VERTEX
  8
SolderMask
  10
-6.710277
  20
-13.072478
  0
VERTEX
  8
SolderMask
  10
-11.942277
  20
-13.072478
  0
VERTEX
  8
SolderMask
  10
-11.942277
  20
-15.142478
  0
VERTEX
  8
SolderMask
  10
-6.710277
  20
-15.142478
  0
SEQEND
  0
POLYLINE
  8
SolderMask
  70
1
  66
1
  0
VERTEX
  8
SolderMask
  10
-6.710277
  20
-12.042478
  0
VERTEX
  8
SolderMask
  10
-6.710277
  20
-10.672478
  0
VERTEX
  8
SolderMask
  10
-11.842277
  20
-10.672478
  0
VERTEX
  8
SolderMask
  10
-11.842277
  20
-12.042478
  0
VERTEX
  8
SolderMask
  10
-6.710277
  20
-12.042478
  0
SEQEND
  0
POLYLINE
  8
SolderMask
  70
1
  66
1
  0
VERTEX
  8
SolderMask
  10
-7.035777
  20
0.157621
  0
VERTEX
  8
SolderMask
  10
-7.035777
  20
2.227621
  0
VERTEX
  8
SolderMask
  10
-12.267777
  20
2.227621
  0
VERTEX
  8
SolderMask
  10
-12.267777
  20
0.157621
  0
VERTEX
  8
SolderMask
  10
-7.035777
  20
0.157621
  0
SEQEND
  0
POLYLINE
  8
SolderMask
  70
1
  66
1
  0
VERTEX
  8
SolderMask
  10
-7.035777
  20
-5.142379
  0
VERTEX
  8
SolderMask
  10
-7.035777
  20
-3.072379
  0
VERTEX
  8
SolderMask
  10
-12.267777
  20
-3.072379
  0
VERTEX
  8
SolderMask
  10
-12.267777
  20
-5.142379
  0
VERTEX
  8
SolderMask
  10
-7.035777
  20
-5.142379
  0
SEQEND
  0
POLYLINE
  8
SolderMask
  70
1
  66
1
  0
VERTEX
  8
SolderMask
  10
-7.035777
  20
-2.042379
  0
VERTEX
  8
SolderMask
  10
-7.035777
  20
-0.672379
  0
VERTEX
  8
SolderMask
  10
-12.167777
  20
-0.672379
  0
VERTEX
  8
SolderMask
  10
-12.167777
  20
-2.042379
  0
VERTEX
  8
SolderMask
  10
-7.035777
  20
-2.042379
  0
SEQEND
  0
POLYLINE
  8
SolderMask
  70
1
  66
1
  0
VERTEX
  8
SolderMask
  10
11.741709
  20
-12.972478
  0
VERTEX
  8
SolderMask
  10
11.741709
  20
-15.042478
  0
VERTEX
  8
SolderMask
  10
16.973709
  20
-15.042478
  0
VERTEX
  8
SolderMask
  10
16.973709
  20
-12.972478
  0
VERTEX
  8
SolderMask
  10
11.741709
  20
-12.972478
  0
SEQEND
  0
POLYLINE
  8
SolderMask
  70
1
  66
1
  0
VERTEX
  8
SolderMask
  10
11.741709
  20
-7.672478
  0
VERTEX
  8
SolderMask
  10
11.741709
  20
-9.742478
  0
VERTEX
  8
SolderMask
  10
16.973709
  20
-9.742478
  0
VERTEX
  8
SolderMask
  10
16.973709
  20
-7.672478
  0
VERTEX
  8
SolderMask
  10
11.741709
  20
-7.672478
  0
SEQEND
  0
POLYLINE
  8
SolderMask
  70
1
  66
1
  0
VERTEX
  8
SolderMask
  10
11.741709
  20
-10.772478
  0
VERTEX
  8
SolderMask
  10
11.741709
  20
-12.142478
  0
VERTEX
  8
SolderMask
  10
16.873709
  20
-12.142478
  0
VERTEX
  8
SolderMask
  10
16.873709
  20
-10.772478
  0
VERTEX
  8
SolderMask
  10
11.741709
  20
-10.772478
  0
SEQEND
  0
POLYLINE
  8
SolderMask
  70
1
  66
1
  0
VERTEX
  8
SolderMask
  10
12.067209
  20
-2.972379
  0
VERTEX
  8
SolderMask
  10
12.067209
  20
-5.042379
  0
VERTEX
  8
SolderMask
  10
17.299209
  20
-5.042379
  0
VERTEX
  8
SolderMask
  10
17.299209
  20
-2.972379
  0
VERTEX
  8
SolderMask
  10
12.067209
  20
-2.972379
  0
SEQEND
  0
POLYLINE
  8
SolderMask
  70
1
  66
1
  0
VERTEX
  8
SolderMask
  10
12.067209
  20
2.327621
  0
VERTEX
  8
SolderMask
  10
12.067209
  20
0.257621
  0
VERTEX
  8
SolderMask
  10
17.299209
  20
0.257621
  0
VERTEX
  8
SolderMask
  10
17.299209
  20
2.327621
  0
VERTEX
  8
SolderMask
  10
12.067209
  20
2.327621
  0
SEQEND
  0
POLYLINE
  8
SolderMask
  70
1
  66
1
  0
VERTEX
  8
SolderMask
  10
12.067209
  20
-0.772379
  0
VERTEX
  8
SolderMask
  10
12.067209
  20
-2.142379
  0
VERTEX
  8
SolderMask
  10
17.199209
  20
-2.142379
  0
VERTEX
  8
SolderMask
  10
17.199209
  20
-0.772379
  0
VERTEX
  8
SolderMask
  10
12.067209
  20
-0.772379
  0
SEQEND
  0
POLYLINE
  8
15_0
  70
1
  66
1
  0
VERTEX
  8
15_0
  10
-7.210277
  20
-9.342478
  0
VERTEX
  8
15_0
  10
-7.210277
  20
-8.272478
  0
VERTEX
  8
15_0
  10
-11.942277
  20
-8.272478
  0
VERTEX
  8
15_0
  10
-11.942277
  20
-9.342478
  0
VERTEX
  8
15_0
  10
-7.210277
  20
-9.342478
  0
SEQEND
  0
POLYLINE
  8
15_0
  70
1
  66
1
  0
VERTEX
  8
15_0
  10
-7.210277
  20
-14.642478
  0
VERTEX
  8
15_0
  10
-7.210277
  20
-13.572478
  0
VERTEX
  8
15_0
  10
-11.942277
  20
-13.572478
  0
VERTEX
  8
15_0
  10
-11.942277
  20
-14.642478
  0
VERTEX
  8
15_0
  10
-7.210277
  20
-14.642478
  0
SEQEND
  0
POLYLINE
  8
15_0
  70
1
  66
1
  0
VERTEX
  8
15_0
  10
-7.535777
  20
0.657621
  0
VERTEX
  8
15_0
  10
-7.535777
  20
1.727621
  0
VERTEX
  8
15_0
  10
-12.267777
  20
1.727621
  0
VERTEX
  8
15_0
  10
-12.267777
  20
0.657621
  0
VERTEX
  8
15_0
  10
-7.535777
  20
0.657621
  0
SEQEND
  0
POLYLINE
  8
15_0
  70
1
  66
1
  0
VERTEX
  8
15_0
  10
-7.535777
  20
-4.642379
  0
VERTEX
  8
15_0
  10
-7.535777
  20
-3.572379
  0
VERTEX
  8
15_0
  10
-12.267777
  20
-3.572379
  0
VERTEX
  8
15_0
  10
-12.267777
  20
-4.642379
  0
VERTEX
  8
15_0
  10
-7.535777
  20
-4.642379
  0
SEQEND
  0
POLYLINE
  8
15_0
  70
1
  66
1
  0
VERTEX
  8
15_0
  10
12.241709
  20
-13.472478
  0
VERTEX
  8
15_0
  10
12.241709
  20
-14.542478
  0
VERTEX
  8
15_0
  10
16.973709
  20
-14.542478
  0
VERTEX
  8
15_0
  10
16.973709
  20
-13.472478
  0
VERTEX
  8
15_0
  10
12.241709
  20
-13.472478
  0
SEQEND
  0
POLYLINE
  8
15_0
  70
1
  66
1
  0
VERTEX
  8
15_0
  10
12.241709
  20
-8.172478
  0
VERTEX
  8
15_0
  10
12.241709
  20
-9.242478
  0
VERTEX
  8
15_0
  10
16.973709
  20
-9.242478
  0
VERTEX
  8
15_0
  10
16.973709
  20
-8.172478
  0
VERTEX
  8
15_0
  10
12.241709
  20
-8.172478
  0
SEQEND
  0
POLYLINE
  8
15_0
  70
1
  66
1
  0
VERTEX
  8
15_0
  10
12.567209
  20
-3.472379
  0
VERTEX
  8
15_0
  10
12.567209
  20
-4.542379
  0
VERTEX
  8
15_0
  10
17.299209
  20
-4.542379
  0
VERTEX
  8
15_0
  10
17.299209
  20
-3.472379
  0
VERTEX
  8
15_0
  10
12.567209
  20
-3.472379
  0
SEQEND
  0
POLYLINE
  8
15_0
  70
1
  66
1
  0
VERTEX
  8
15_0
  10
12.567209
  20
1.827621
  0
VERTEX
  8
15_0
  10
12.567209
  20
0.757621
  0
VERTEX
  8
15_0
  10
17.299209
  20
0.757621
  0
VERTEX
  8
15_0
  10
17.299209
  20
1.827621
  0
VERTEX
  8
15_0
  10
12.567209
  20
1.827621
  0
SEQEND
  0
POLYLINE
  8
14_0
  70
1
  66
1
  0
VERTEX
  8
14_0
  10
-13.410277
  20
-13.972478
  0
VERTEX
  8
14_0
  10
-15.010277
  20
-13.972478
  0
VERTEX
  8
14_0
  10
-15.010277
  20
-14.772478
  0
VERTEX
  8
14_0
  10
-20.910277
  20
-14.772478
  0
VERTEX
  8
14_0
  10
-20.910277
  20
-14.072478
  0
VERTEX
  8
14_0
  10
-21.310277
  20
-14.072478
  0
VERTEX
  8
14_0
  10
-21.310277
  20
-8.772478
  0
VERTEX
  8
14_0
  10
-21.010277
  20
-8.772478
  0
VERTEX
  8
14_0
  10
-21.010277
  20
-8.072478
  0
VERTEX
  8
14_0
  10
-15.210277
  20
-8.072478
  0
VERTEX
  8
14_0
  10
-15.210277
  20
-8.772478
  0
VERTEX
  8
14_0
  10
-13.410277
  20
-8.772478
  0
VERTEX
  8
14_0
  10
-13.410277
  20
-13.972478
  0
SEQEND
  0
POLYLINE
  8
14_0
  70
1
  66
1
  0
VERTEX
  8
14_0
  10
-13.735777
  20
-3.972379
  0
VERTEX
  8
14_0
  10
-15.335777
  20
-3.972379
  0
VERTEX
  8
14_0
  10
-15.335777
  20
-4.772379
  0
VERTEX
  8
14_0
  10
-21.235777
  20
-4.772379
  0
VERTEX
  8
14_0
  10
-21.235777
  20
-4.072379
  0
VERTEX
  8
14_0
  10
-21.635777
  20
-4.072379
  0
VERTEX
  8
14_0
  10
-21.635777
  20
1.227621
  0
VERTEX
  8
14_0
  10
-21.335777
  20
1.227621
  0
VERTEX
  8
14_0
  10
-21.335777
  20
1.927621
  0
VERTEX
  8
14_0
  10
-15.535777
  20
1.927621
  0
VERTEX
  8
14_0
  10
-15.535777
  20
1.227621
  0
VERTEX
  8
14_0
  10
-13.735777
  20
1.227621
  0
VERTEX
  8
14_0
  10
-13.735777
  20
-3.972379
  0
SEQEND
  0
POLYLINE
  8
14_0
  70
1
  66
1
  0
VERTEX
  8
14_0
  10
18.441709
  20
-8.842478
  0
VERTEX
  8
14_0
  10
20.041709
  20
-8.842478
  0
VERTEX
  8
14_0
  10
20.041709
  20
-8.042478
  0
VERTEX
  8
14_0
  10
25.941709
  20
-8.042478
  0
VERTEX
  8
14_0
  10
25.941709
  20
-8.742478
  0
VERTEX
  8
14_0
  10
26.341709
  20
-8.742478
  0
VERTEX
  8
14_0
  10
26.341709
  20
-14.042478
  0
VERTEX
  8
14_0
  10
26.041709
  20
-14.042478
  0
VERTEX
  8
14_0
  10
26.041709
  20
-14.742478
  0
VERTEX
  8
14_0
  10
20.241709
  20
-14.742478
  0
VERTEX
  8
14_0
  10
20.241709
  20
-14.042478
  0
VERTEX
  8
14_0
  10
18.441709
  20
-14.042478
  0
VERTEX
  8
14_0
  10
18.441709
  20
-8.842478
  0
SEQEND
  0
POLYLINE
  8
14_0
  70
1
  66
1
  0
VERTEX
  8
14_0
  10
18.767209
  20
1.157621
  0
VERTEX
  8
14_0
  10
20.367209
  20
1.157621
  0
VERTEX
  8
14_0
  10
20.367209
  20
1.957621
  0
VERTEX
  8
14_0
  10
26.267209
  20
1.957621
  0
VERTEX
  8
14_0
  10
26.267209
  20
1.257621
  0
VERTEX
  8
14_0
  10
26.667209
  20
1.257621
  0
VERTEX
  8
14_0
  10
26.667209
  20
-4.042379
  0
VERTEX
  8
14_0
  10
26.367209
  20
-4.042379
  0
VERTEX
  8
14_0
  10
26.367209
  20
-4.742379
  0
VERTEX
  8
14_0
  10
20.567209
  20
-4.742379
  0
VERTEX
  8
14_0
  10
20.567209
  20
-4.042379
  0
VERTEX
  8
14_0
  10
18.767209
  20
-4.042379
  0
VERTEX
  8
14_0
  10
18.767209
  20
1.157621
  0
SEQEND
  0
POLYLINE
  8
16_0
  70
1
  66
1
  0
VERTEX
  8
16_0
  10
-11.910277
  20
-14.672478
  0
VERTEX
  8
16_0
  10
-11.910277
  20
-8.272478
  0
VERTEX
  8
16_0
  10
-13.410277
  20
-8.272478
  0
VERTEX
  8
16_0
  10
-13.410277
  20
-14.672478
  0
VERTEX
  8
16_0
  10
-11.910277
  20
-14.672478
  0
SEQEND
  0
POLYLINE
  8
16_0
  70
1
  66
1
  0
VERTEX
  8
16_0
  10
-12.235777
  20
-4.672379
  0
VERTEX
  8
16_0
  10
-12.235777
  20
1.727621
  0
VERTEX
  8
16_0
  10
-13.735777
  20
1.727621
  0
VERTEX
  8
16_0
  10
-13.735777
  20
-4.672379
  0
VERTEX
  8
16_0
  10
-12.235777
  20
-4.672379
  0
SEQEND
  0
POLYLINE
  8
16_0
  70
1
  66
1
  0
VERTEX
  8
16_0
  10
16.941709
  20
-8.142478
  0
VERTEX
  8
16_0
  10
16.941709
  20
-14.542478
  0
VERTEX
  8
16_0
  10
18.441709
  20
-14.542478
  0
VERTEX
  8
16_0
  10
18.441709
  20
-8.142478
  0
VERTEX
  8
16_0
  10
16.941709
  20
-8.142478
  0
SEQEND
  0
POLYLINE
  8
16_0
  70
1
  66
1
  0
VERTEX
  8
16_0
  10
17.267209
  20
1.857621
  0
VERTEX
  8
16_0
  10
17.267209
  20
-4.542379
  0
VERTEX
  8
16_0
  10
18.767209
  20
-4.542379
  0
VERTEX
  8
16_0
  10
18.767209
  20
1.857621
  0
VERTEX
  8
16_0
  10
17.267209
  20
1.857621
  0
SEQEND
  0
POLYLINE
  8
17_0
  70
1
  66
1
  0
VERTEX
  8
17_0
  10
-7.210277
  20
-14.642478
  0
VERTEX
  8
17_0
  10
-7.210277
  20
-13.572478
  0
VERTEX
  8
17_0
  10
-11.942277
  20
-13.572478
  0
VERTEX
  8
17_0
  10
-11.942277
  20
-14.642478
  0
VERTEX
  8
17_0
  10
-7.210277
  20
-14.642478
  0
SEQEND
  0
POLYLINE
  8
17_0
  70
1
  66
1
  0
VERTEX
  8
17_0
  10
-7.210277
  20
-9.342478
  0
VERTEX
  8
17_0
  10
-7.210277
  20
-8.272478
  0
VERTEX
  8
17_0
  10
-11.942277
  20
-8.272478
  0
VERTEX
  8
17_0
  10
-11.942277
  20
-9.342478
  0
VERTEX
  8
17_0
  10
-7.210277
  20
-9.342478
  0
SEQEND
  0
POLYLINE
  8
17_0
  70
1
  66
1
  0
VERTEX
  8
17_0
  10
-7.535777
  20
-4.642379
  0
VERTEX
  8
17_0
  10
-7.535777
  20
-3.572379
  0
VERTEX
  8
17_0
  10
-12.267777
  20
-3.572379
  0
VERTEX
  8
17_0
  10
-12.267777
  20
-4.642379
  0
VERTEX
  8
17_0
  10
-7.535777
  20
-4.642379
  0
SEQEND
  0
POLYLINE
  8
17_0
  70
1
  66
1
  0
VERTEX
  8
17_0
  10
-7.535777
  20
0.657621
  0
VERTEX
  8
17_0
  10
-7.535777
  20
1.727621
  0
VERTEX
  8
17_0
  10
-12.267777
  20
1.727621
  0
VERTEX
  8
17_0
  10
-12.267777
  20
0.657621
  0
VERTEX
  8
17_0
  10
-7.535777
  20
0.657621
  0
SEQEND
  0
POLYLINE
  8
17_0
  70
1
  66
1
  0
VERTEX
  8
17_0
  10
12.241709
  20
-8.172478
  0
VERTEX
  8
17_0
  10
12.241709
  20
-9.242478
  0
VERTEX
  8
17_0
  10
16.973709
  20
-9.242478
  0
VERTEX
  8
17_0
  10
16.973709
  20
-8.172478
  0
VERTEX
  8
17_0
  10
12.241709
  20
-8.172478
  0
SEQEND
  0
POLYLINE
  8
17_0
  70
1
  66
1
  0
VERTEX
  8
17_0
  10
12.241709
  20
-13.472478
  0
VERTEX
  8
17_0
  10
12.241709
  20
-14.542478
  0
VERTEX
  8
17_0
  10
16.973709
  20
-14.542478
  0
VERTEX
  8
17_0
  10
16.973709
  20
-13.472478
  0
VERTEX
  8
17_0
  10
12.241709
  20
-13.472478
  0
SEQEND
  0
POLYLINE
  8
17_0
  70
1
  66
1
  0
VERTEX
  8
17_0
  10
12.567209
  20
1.827621
  0
VERTEX
  8
17_0
  10
12.567209
  20
0.757621
  0
VERTEX
  8
17_0
  10
17.299209
  20
0.757621
  0
VERTEX
  8
17_0
  10
17.299209
  20
1.827621
  0
VERTEX
  8
17_0
  10
12.567209
  20
1.827621
  0
SEQEND
  0
POLYLINE
  8
17_0
  70
1
  66
1
  0
VERTEX
  8
17_0
  10
12.567209
  20
-3.472379
  0
VERTEX
  8
17_0
  10
12.567209
  20
-4.542379
  0
VERTEX
  8
17_0
  10
17.299209
  20
-4.542379
  0
VERTEX
  8
17_0
  10
17.299209
  20
-3.472379
  0
VERTEX
  8
17_0
  10
12.567209
  20
-3.472379
  0
SEQEND
  0
ENDSEC
  0
EOF
